<?xml version="1.0" encoding="UTF-8"?>
<svg version="1.1" viewBox="0 0 32 32" xmlns="http://www.w3.org/2000/svg" xmlns:xlink="http://www.w3.org/1999/xlink">
  <title>Favorite</title>
  <desc>Available favorite point</desc>
  <defs>
    <path id="a" d="m15.997 6.4672c-1.4991-2.7335-4.3275-4.4672-7.4759-4.4672-4.6913 0-8.5215 3.8656-8.5215 8.5914 0 2.3352 0.71621 3.9 2.5917 6.5835 0.662 0.95911 1.544 2.0037 2.6209 3.1202 0.93514 0.97058 2.0048 1.9829 3.1838 3.0254 1.5315 1.3532 3.1703 2.6897 4.807 3.9522 0.57234 0.44098 1.1051 0.84235 1.5825 1.1947 0.28878 0.21267 0.49624 0.3628 0.60779 0.44411l0.6057 0.43264 0.6057-0.43264c0.11259-0.081316 0.31901-0.23144 0.60779-0.44411 0.47851-0.35237 1.0102-0.75374 1.5836-1.1947 1.6378-1.2625 3.2745-2.599 4.806-3.9522 1.1801-1.0425 2.2497-2.0548 3.1849-3.0254 1.0769-1.1165 1.9599-2.1611 2.6198-3.1202 1.8765-2.6834 2.5927-4.2482 2.5927-6.5835 0-4.7257-3.8302-8.5914-8.5215-8.5914-3.1567 0-5.9976 1.7514-7.4811 4.4672z"/>
  </defs>
  <g fill="none" fill-rule="evenodd">
    <mask fill="white">
      <use xlink:href="#a"/>
    </mask>
    <use fill="#007BC6" xlink:href="#a"/>
  </g>
</svg>
